# xmcd CD database file
#
# Track frame offsets:
#	150
#	13884
#	27375
#	42075
#	56698
#	67219
#	78982
#	92588
#	106949
#	122210
#	131799
#	145797
#	160293
#	173866
#	187102
#	199323
#
# Disc length: 2818 seconds
#
# Revision: 0
# Processed by: cddbd v1.5.2PL0 Copyright (c) Steve Scherf et al.
# Submitted via: CDex 1.51
#
DISCID=ea0b0010
DTITLE=Various Artist - Jazz - The Essential Collection disc 8
DYEAR=1900
DGENRE=Jazz
TTITLE0=Artie Shaw - Frenesi
TTITLE1=Benny Goodman - Jersey Bounce
TTITLE2=Duke Ellington and His Famous Orchestra - Do Nothing 'Till You Hear From Me (Concerto For Cootie)
TTITLE3=Billie Holiday - Lover Man (Oh Where Can You Be)
TTITLE4=Peggy Lee - It's A Good Day
TTITLE5=Hoagy Carmichael - Huggin' and Chalkin'
TTITLE6=Nellie Lutcher and Her Rhythm - He's A Real Gone Guy
TTITLE7=Ella Fitzgerald and The Ink Spots - I'm Making Believe
TTITLE8=Nat 'King' Cole Trio - All For You
TTITLE9=Nellie Lutcher and Her Rhythm - He's A Real Gone Guy
TTITLE10=Harry James and His Orchestra - You Made Me Love You
TTITLE11=Count Basie - Blue and Sentimental
TTITLE12=Jimmy Dorsey and His Orchestra - Marie Elena
TTITLE13=Johnny Mercer and Jack Teagarden (feat. The Paul Whiteman Orchestra) - The Old Music Master
TTITLE14=Jimmie Lunceford - Life Is Fine
TTITLE15=Ella Fitzgerald (feat. Louis Jordan and His Tympany Five) - Baby It's Cold Outside
EXTD=
EXTT0=
EXTT1=
EXTT2=
EXTT3=
EXTT4=
EXTT5=
EXTT6=
EXTT7=
EXTT8=
EXTT9=
EXTT10=
EXTT11=
EXTT12=
EXTT13=
EXTT14=
EXTT15=
PLAYORDER=
